<?xml version="1.0" encoding="UTF-8" standalone="no"?>
<svg
   xmlns:dc="http://purl.org/dc/elements/1.1/"
   xmlns:cc="http://creativecommons.org/ns#"
   xmlns:rdf="http://www.w3.org/1999/02/22-rdf-syntax-ns#"
   xmlns:svg="http://www.w3.org/2000/svg"
   xmlns="http://www.w3.org/2000/svg"
   xmlns:xlink="http://www.w3.org/1999/xlink"
   xmlns:sodipodi="http://sodipodi.sourceforge.net/DTD/sodipodi-0.dtd"
   xmlns:inkscape="http://www.inkscape.org/namespaces/inkscape"
   enable-background="new 0 0 128 128"
   height="99.690002"
   id="Layer_1"
   inkscape:output_extension="org.inkscape.output.svgz.inkscape"
   inkscape:version="0.48.4 r9939"
   overflow="visible"
   sodipodi:docname="cq-unix-toolkit-logo.pdf"
   sodipodi:version="0.32"
   space="preserve"
   version="1.1"
   viewBox="0 0 133.69661 99.69"
   width="133.69661"
   style="overflow:visible"
   inkscape:export-xdpi="90"
   inkscape:export-ydpi="90">
  <metadata
     id="metadata3">
    <rdf:RDF>
      <cc:Work
         rdf:about="">
        <dc:title></dc:title>
        <dc:description />
        <dc:subject>
          <rdf:Bag>
            <rdf:li>unsorted</rdf:li>
          </rdf:Bag>
        </dc:subject>
        <dc:creator>
          <cc:Agent>
            <dc:title />
          </cc:Agent>
        </dc:creator>
        <dc:rights>
          <cc:Agent>
            <dc:title />
          </cc:Agent>
        </dc:rights>
        <dc:date />
        <dc:format>image/svg+xml</dc:format>
        <dc:type
           rdf:resource="http://purl.org/dc/dcmitype/StillImage" />
        <cc:license
           rdf:resource="http://creativecommons.org/licenses/by-sa/3.0/ or http://creativecommons.org/licenses/LGPL/2.1/" />
        <dc:language>en</dc:language>
      </cc:Work>
    </rdf:RDF>
  </metadata>
  <defs
     id="defs105">
    <linearGradient
       id="linearGradient8107">
      <stop
         id="stop8109"
         offset="0"
         style="stop-color:#6d6d6d;stop-opacity:0;" />
      <stop
         id="stop8111"
         offset="0.5"
         style="stop-color:#666666;stop-opacity:1;" />
      <stop
         id="stop8113"
         offset="1"
         style="stop-color:#686868;stop-opacity:0;" />
    </linearGradient>
    <linearGradient
       id="linearGradient7704">
      <stop
         id="stop7706"
         offset="0"
         style="stop-color:#ffffff;stop-opacity:0;" />
      <stop
         id="stop7712"
         offset="0.5"
         style="stop-color:#ffffff;stop-opacity:1;" />
      <stop
         id="stop7708"
         offset="1"
         style="stop-color:#ffffff;stop-opacity:0;" />
    </linearGradient>
    <linearGradient
       gradientUnits="userSpaceOnUse"
       id="XMLID_1_"
       x1="61.382301"
       x2="61.382301"
       y1="105.9346"
       y2="93.089798">
      <stop
         id="stop11"
         offset="0"
         style="stop-color:#000000;stop-opacity:0;" />
      <stop
         id="stop13"
         offset="0.858"
         style="stop-color:#000000" />
    </linearGradient>
    <filter
       id="AI_Sfocatura_2"
       color-interpolation-filters="sRGB">
      <feGaussianBlur
         id="feGaussianBlur5"
         stdDeviation="2" />
    </filter>
    <radialGradient
       cx="52"
       cy="-31"
       gradientUnits="userSpaceOnUse"
       id="radialGradient4205"
       r="136.00369">
      <stop
         id="stop4207"
         offset="0"
         style="stop-color:#ffffff;stop-opacity:0;" />
      <stop
         id="stop4209"
         offset="0.52140325"
         style="stop-color:#ffffff;stop-opacity:1;" />
      <stop
         id="stop4211"
         offset="1"
         style="stop-color:#ffffff;stop-opacity:0;" />
    </radialGradient>
    <radialGradient
       cx="52"
       cy="-31"
       gradientUnits="userSpaceOnUse"
       id="radialGradient9766"
       r="136.00369">
      <stop
         id="stop9768"
         offset="0"
         style="stop-color:#8e8e8e;stop-opacity:1;" />
      <stop
         id="stop9774"
         offset="0.5"
         style="stop-color:#ababab;stop-opacity:1;" />
      <stop
         id="stop9772"
         offset="1"
         style="stop-color:#9d9d9d;stop-opacity:1;" />
    </radialGradient>
    <radialGradient
       cx="52"
       cy="-31"
       gradientUnits="userSpaceOnUse"
       id="radialGradient5295"
       r="136.00369">
      <stop
         id="stop5297"
         offset="0"
         style="stop-color:#c6c6c6;stop-opacity:1;" />
      <stop
         id="stop5299"
         offset="0.52140325"
         style="stop-color:#EEEEEE" />
      <stop
         id="stop5301"
         offset="1"
         style="stop-color:#c6c6c6;stop-opacity:1;" />
    </radialGradient>
    <linearGradient
       gradientUnits="userSpaceOnUse"
       id="XMLID_94_"
       x1="9"
       x2="106.55763"
       y1="24.324116"
       y2="53.655067">
      <stop
         id="stop35"
         offset="0"
         style="stop-color:#555753" />
      <stop
         id="stop37"
         offset="0.6272"
         style="stop-color:#2E2E2E" />
      <stop
         id="stop39"
         offset="1"
         style="stop-color:#2E2E2E" />
    </linearGradient>
    <linearGradient
       gradientTransform="matrix(0.9867021,0,0,1,1.61969,0)"
       gradientUnits="userSpaceOnUse"
       id="linearGradient2323"
       inkscape:collect="always"
       x1="9"
       x2="106.55763"
       xlink:href="#XMLID_94_"
       y1="24.324116"
       y2="53.655067" />
    <filter
       height="1.148755"
       id="filter3303"
       inkscape:collect="always"
       width="1.2706947"
       x="-0.13534737"
       y="-0.07437744"
       color-interpolation-filters="sRGB">
      <feGaussianBlur
         id="feGaussianBlur3305"
         inkscape:collect="always"
         stdDeviation="0.55036926" />
    </filter>
    <filter
       height="2.7279999"
       id="filter3727"
       inkscape:collect="always"
       width="1.1016471"
       x="-0.050823528"
       y="-0.86400002"
       color-interpolation-filters="sRGB">
      <feGaussianBlur
         id="feGaussianBlur3729"
         inkscape:collect="always"
         stdDeviation="0.36" />
    </filter>
    <linearGradient
       gradientUnits="userSpaceOnUse"
       id="linearGradient7710"
       inkscape:collect="always"
       x1="4"
       x2="10.71875"
       xlink:href="#linearGradient7704"
       y1="16"
       y2="10.9375"
       gradientTransform="translate(2.8482998,-20.000005)" />
    <linearGradient
       gradientTransform="matrix(-1,0,0,1,130.87954,-20.000005)"
       gradientUnits="userSpaceOnUse"
       id="linearGradient7716"
       inkscape:collect="always"
       x1="4"
       x2="10.71875"
       xlink:href="#linearGradient7704"
       y1="16"
       y2="10.9375" />
  </defs>
  <sodipodi:namedview
     bordercolor="#666666"
     borderopacity="1.0"
     gridtolerance="10.0"
     guidetolerance="10.0"
     id="base"
     inkscape:current-layer="Layer_1"
     inkscape:cx="62.879304"
     inkscape:cy="72.404399"
     inkscape:grid-points="true"
     inkscape:pageopacity="0.0"
     inkscape:pageshadow="2"
     inkscape:window-height="734"
     inkscape:window-width="1280"
     inkscape:window-x="0"
     inkscape:window-y="27"
     inkscape:zoom="4"
     objecttolerance="10.0"
     pagecolor="#ffffff"
     showgrid="true"
     inkscape:window-maximized="1"
     fit-margin-top="0"
     fit-margin-left="0"
     fit-margin-right="0"
     fit-margin-bottom="0">
    <inkscape:grid
       empspacing="5"
       id="grid2333"
       spacingx="4px"
       spacingy="4px"
       type="xygrid"
       visible="true"
       enabled="true"
       snapvisiblegridlinesonly="true"
       originx="2.8482996px"
       originy="-8.3100153px" />
    <inkscape:grid
       id="GridFromPre046Settings"
       type="xygrid"
       originx="2.8482996px"
       originy="-8.3100153px"
       spacingx="4px"
       spacingy="4px"
       color="#3f3fff"
       empcolor="#3f3fff"
       opacity="0.15"
       empopacity="0.38"
       empspacing="2"
       visible="true"
       enabled="true"
       snapvisiblegridlinesonly="true" />
  </sodipodi:namedview>
  <radialGradient
     cx="102"
     cy="112.3047"
     gradientUnits="userSpaceOnUse"
     id="XMLID_7_"
     r="139.5585">
    <stop
       id="stop16"
       offset="0"
       style="stop-color:black;stop-opacity:1;" />
    <stop
       id="stop18"
       offset="0.0151"
       style="stop-color:#186389" />
    <stop
       id="stop20"
       offset="0.0558"
       style="stop-color:#558CA8" />
    <stop
       id="stop22"
       offset="0.0964"
       style="stop-color:#89AFC3" />
    <stop
       id="stop24"
       offset="0.1357"
       style="stop-color:#B3CCD8" />
    <stop
       id="stop26"
       offset="0.1737"
       style="stop-color:#D4E2E9" />
    <stop
       id="stop28"
       offset="0.2099"
       style="stop-color:#ECF2F5" />
    <stop
       id="stop30"
       offset="0.2435"
       style="stop-color:#FAFCFD" />
    <stop
       id="stop32"
       offset="0.2722"
       style="stop-color:#FFFFFF" />
  </radialGradient>
  <linearGradient
     gradientUnits="userSpaceOnUse"
     id="XMLID_9_"
     x1="94.343803"
     x2="86.535599"
     y1="102.3447"
     y2="94.536598">
    <stop
       id="stop62"
       offset="0"
       style="stop-color:#FFFFFF" />
    <stop
       id="stop64"
       offset="1"
       style="stop-color:#555753" />
  </linearGradient>
  <linearGradient
     gradientUnits="userSpaceOnUse"
     id="XMLID_10_"
     x1="95"
     x2="86.586502"
     y1="103"
     y2="94.586502">
    <stop
       id="stop69"
       offset="0"
       style="stop-color:#FFFFFF" />
    <stop
       id="stop71"
       offset="1"
       style="stop-color:#555753" />
  </linearGradient>
  <linearGradient
     gradientUnits="userSpaceOnUse"
     id="XMLID_11_"
     x1="95"
     x2="87.292999"
     y1="103"
     y2="95.292999">
    <stop
       id="stop76"
       offset="0"
       style="stop-color:#FFFFFF" />
    <stop
       id="stop78"
       offset="1"
       style="stop-color:#393B38" />
  </linearGradient>
  <linearGradient
     gradientUnits="userSpaceOnUse"
     id="XMLID_12_"
     x1="96"
     x2="88.000198"
     y1="104"
     y2="96.000198">
    <stop
       id="stop83"
       offset="0"
       style="stop-color:#888A85" />
    <stop
       id="stop85"
       offset="0.0072"
       style="stop-color:#8C8E89" />
    <stop
       id="stop87"
       offset="0.0673"
       style="stop-color:#ABACA9" />
    <stop
       id="stop89"
       offset="0.1347"
       style="stop-color:#C5C6C4" />
    <stop
       id="stop91"
       offset="0.2115"
       style="stop-color:#DBDBDA" />
    <stop
       id="stop93"
       offset="0.3012"
       style="stop-color:#EBEBEB" />
    <stop
       id="stop95"
       offset="0.4122"
       style="stop-color:#F7F7F6" />
    <stop
       id="stop97"
       offset="0.5679"
       style="stop-color:#FDFDFD" />
    <stop
       id="stop99"
       offset="1"
       style="stop-color:#FFFFFF" />
  </linearGradient>
  <g
     id="g8"
     style="opacity:0.8;overflow:visible;filter:url(#AI_Sfocatura_2)"
     transform="matrix(1.0100632,0,0,1.185411,4.8485694,-31.576515)">
    <linearGradient
       gradientUnits="userSpaceOnUse"
       id="linearGradient6549"
       x1="61.382301"
       x2="61.382301"
       y1="105.9346"
       y2="93.089798">
      <stop
         id="stop6551"
         offset="0"
         style="stop-color:#000000;stop-opacity:0;" />
      <stop
         id="stop6553"
         offset="0.858"
         style="stop-color:#000000" />
    </linearGradient>
    <path
       d="m 122.522,99.512 c 1.085,3.532 -1.577,6.423 -5.916,6.423 l -110.447,0 c -4.339,0 -7.002,-2.891 -5.917,-6.423 1.085,-3.531 5.522,-6.422 9.861,-6.422 l 102.558,0 c 4.339,0 8.777,2.89 9.861,6.422 z"
       id="path15"
       style="fill:url(#XMLID_1_)"
       inkscape:connector-curvature="0" />
  </g>
  <g
     id="g2681"
     transform="matrix(1.5789473,0,0,1.5882353,-31.046415,-56.470593)" />
  <rect
     height="82.588242"
     id="rect30"
     width="119.99998"
     x="6.8483086"
     y="0.70587045" />
  <g
     id="g32"
     transform="matrix(1.2257059,0,0,1.0890756,-2.8637084,-5.9193315)">
    <linearGradient
       gradientUnits="userSpaceOnUse"
       id="linearGradient3040"
       x1="55.9995"
       x2="55.9995"
       y1="7"
       y2="83">
      <stop
         id="stop3042"
         offset="0"
         style="stop-color:#555753" />
      <stop
         id="stop3044"
         offset="0.6272"
         style="stop-color:#2E2E2E" />
      <stop
         id="stop3046"
         offset="1"
         style="stop-color:#2E2E2E" />
    </linearGradient>
    <path
       d="m 103.25,76 c 0,1.65 -1.33204,3 -2.9601,3 l -86.829785,0 c -1.628058,0 -2.960106,-1.35 -2.960106,-3 l 0,-64 c 0,-1.65 1.332048,-3 2.960106,-3 L 100.2899,9 c 1.62806,0 2.9601,1.35 2.9601,3 l 0,64 z"
       id="path41"
       style="fill:url(#linearGradient2323)"
       inkscape:connector-curvature="0" />
  </g>
  <path
     d="M 6.8483078,77.096082 C 56.147874,30.870193 103.58233,20.132773 126.84829,17.782252 l 0,-15.0910632 -119.9999822,0 0,74.4048932 z"
     id="path43"
     style="opacity:0.1;fill:#ffffff"
     inkscape:connector-curvature="0" />
  <path
     d="m 48.848299,11.999996 12,12 -12,12"
     id="path2331"
     sodipodi:nodetypes="ccc"
     style="fill:none;stroke:#ffdd00;stroke-width:1;stroke-linecap:butt;stroke-linejoin:miter;stroke-miterlimit:4;stroke-opacity:1;stroke-dasharray:1, 1;stroke-dashoffset:0;marker-end:none;filter:url(#filter3303)"
     inkscape:connector-curvature="0" />
  <path
     d="m 48.848299,11.999996 12,12 -12,12"
     id="path3293"
     sodipodi:nodetypes="ccc"
     style="fill:none;stroke:#f3c300;stroke-width:1;stroke-linecap:butt;stroke-linejoin:miter;stroke-miterlimit:4;stroke-opacity:1;stroke-dasharray:1, 1;stroke-dashoffset:0;marker-end:none"
     inkscape:connector-curvature="0" />
  <path
     d="m 64.848299,35.999996 16,0"
     id="path3725"
     sodipodi:nodetypes="cc"
     style="fill:none;stroke:#ffdd00;stroke-width:1;stroke-linecap:butt;stroke-linejoin:miter;stroke-miterlimit:4;stroke-opacity:1;stroke-dasharray:1, 1;stroke-dashoffset:0;filter:url(#filter3727)"
     inkscape:connector-curvature="0" />
  <path
     d="m 64.848299,35.999996 16,0"
     id="path3723"
     sodipodi:nodetypes="cc"
     style="fill:none;stroke:#f3c300;stroke-width:1;stroke-linecap:butt;stroke-linejoin:miter;stroke-miterlimit:4;stroke-opacity:1;stroke-dasharray:1, 1;stroke-dashoffset:0"
     inkscape:connector-curvature="0" />
  <g
     transform="matrix(0.19905062,0,0,-0.19905062,-56.409167,113.1038)"
     id="g4347">
    <path
       d="m 447.49,407.517 c 2.959,-3.079 6.97,-4.706 11.605,-4.706 9.042,0 16.399,7.352 16.399,16.394 0,4.783 -1.809,9.056 -5.098,12.038 l -0.058,0.057 c -4.315,4.127 -6.69,9.835 -6.69,16.065 0,6.092 2.42,11.97 6.641,16.128 l 0.044,0.048 c 3.324,3.133 5.161,7.376 5.161,11.944 0,9.037 -7.357,16.39 -16.399,16.39 -4.689,0 -9.163,-2.014 -12.278,-5.521 l -0.093,-0.112 -0.107,-0.103 c -4.209,-3.898 -10.027,-6.225 -15.562,-6.225 -5.534,0 -11.35,2.327 -15.564,6.225 l -0.102,0.103 -0.098,0.112 c -3.11,3.507 -7.587,5.521 -12.275,5.521 -9.039,0 -16.397,-7.353 -16.397,-16.39 0,-4.568 1.834,-8.811 5.16,-11.944 l 0.047,-0.048 c 4.22,-4.158 6.638,-10.036 6.638,-16.128 0,-6.23 -2.375,-11.938 -6.689,-16.065 l -0.058,-0.057 c -3.289,-2.982 -5.098,-7.255 -5.098,-12.038 0,-9.042 7.358,-16.394 16.397,-16.394 4.634,0 8.645,1.627 11.604,4.706 4.178,4.684 10.011,7.255 16.435,7.255 6.424,0 12.259,-2.571 16.435,-7.255 z m 11.605,-10.548 c -6.288,0 -11.77,2.264 -15.863,6.551 l -0.069,0.08 c -3.059,3.439 -7.357,5.334 -12.108,5.334 -4.748,0 -9.046,-1.895 -12.101,-5.334 l -0.074,-0.08 c -4.088,-4.287 -9.578,-6.551 -15.864,-6.551 -12.262,0 -22.239,9.973 -22.239,22.236 0,6.436 2.48,12.233 6.983,16.337 3.137,3.017 4.864,7.215 4.864,11.823 0,4.465 -1.82,8.926 -4.873,11.948 -4.432,4.188 -6.974,10.075 -6.974,16.172 0,12.259 9.977,22.232 22.239,22.232 6.308,0 12.331,-2.687 16.547,-7.38 3.105,-2.83 7.5,-4.581 11.492,-4.581 3.998,0 8.389,1.751 11.496,4.581 4.213,4.693 10.233,7.38 16.544,7.38 12.263,0 22.236,-9.973 22.236,-22.232 0,-6.097 -2.54,-11.984 -6.97,-16.172 -3.051,-3.022 -4.87,-7.483 -4.87,-11.948 0,-4.608 1.725,-8.806 4.862,-11.823 4.501,-4.104 6.978,-9.901 6.978,-16.337 0,-12.263 -9.973,-22.236 -22.236,-22.236"
       style="fill:#22411f;fill-opacity:1;fill-rule:nonzero;stroke:none"
       id="path4176"
       inkscape:connector-curvature="0" />
    <path
       d="m 413.116,407.619 c -0.102,-4.674 1.727,-9.024 5.285,-12.584 3.365,-3.361 7.832,-5.21 12.587,-5.21 4.753,0 9.223,1.849 12.585,5.21 3.663,3.663 5.553,8.342 5.317,13.177 l 0,0.04 c -0.125,5.588 2.085,10.936 6.22,15.072 4.002,4.001 9.456,6.3 14.952,6.3 l 0.182,0 c 0.178,-0.008 0.357,-0.008 0.535,-0.008 4.759,0 9.225,1.849 12.589,5.209 3.356,3.365 5.209,7.83 5.209,12.589 0,4.755 -1.853,9.22 -5.209,12.585 -3.364,3.36 -7.83,5.214 -12.589,5.214 -0.357,0 -0.722,-0.013 -1.079,-0.031 l -0.075,-0.009 -0.076,0 c -5.393,0.209 -10.802,2.527 -14.475,6.19 -3.667,3.667 -5.979,9.077 -6.184,14.474 l -0.005,0.071 0.005,0.08 c 0.307,5.085 -1.578,10.067 -5.181,13.663 -3.36,3.365 -7.828,5.214 -12.585,5.214 -4.753,0 -9.222,-1.849 -12.584,-5.21 -3.505,-3.511 -5.354,-8.168 -5.203,-13.123 l 0,-0.036 c 0.04,-5.552 -2.257,-11.056 -6.301,-15.098 -4.12,-4.122 -9.486,-6.341 -15.072,-6.225 l -0.04,0.009 c -0.272,0.008 -0.546,0.018 -0.816,0.018 -4.596,0 -8.87,-1.846 -12.361,-5.339 -6.938,-6.939 -6.938,-18.231 0,-25.17 3.556,-3.556 7.919,-5.387 12.582,-5.289 0.401,0.026 0.805,0.036 1.203,0.036 5.408,0 10.56,-2.171 14.504,-6.114 4.262,-4.261 6.421,-9.835 6.08,-15.705 z m 17.872,-20.837 c -5.566,0 -10.8,2.169 -14.732,6.105 -4.172,4.166 -6.306,9.295 -6.177,14.826 l 0.003,0.058 c 0.298,5 -1.547,9.755 -5.194,13.404 -3.416,3.418 -7.69,5.228 -12.356,5.228 -0.349,0 -0.701,-0.009 -1.051,-0.032 l -0.054,-0.004 c -5.53,-0.129 -10.666,2.014 -14.828,6.176 -8.124,8.124 -8.124,21.342 0,29.466 4.249,4.251 9.779,6.475 15.45,6.203 4.737,-0.103 9.311,1.805 12.836,5.329 3.421,3.423 5.444,8.249 5.415,12.915 -0.17,5.713 2.05,11.306 6.092,15.348 3.937,3.935 9.167,6.1 14.732,6.1 5.566,0 10.8,-2.165 14.735,-6.1 4.194,-4.198 6.404,-9.996 6.07,-15.918 0.186,-4.559 2.218,-9.292 5.294,-12.376 3.084,-3.079 7.816,-5.102 12.371,-5.294 0.391,0.023 0.793,0.031 1.185,0.031 5.566,0 10.802,-2.17 14.733,-6.1 3.939,-3.935 6.104,-9.167 6.104,-14.733 0,-5.566 -2.165,-10.802 -6.104,-14.732 -3.931,-3.936 -9.167,-6.106 -14.733,-6.106 -0.201,0 -0.41,0.004 -0.611,0.009 l -0.106,0 c -4.63,0 -9.416,-2.023 -12.803,-5.41 -3.539,-3.534 -5.433,-8.093 -5.33,-12.834 0.267,-5.695 -1.935,-11.185 -6.208,-15.454 -3.935,-3.936 -9.166,-6.105 -14.733,-6.105"
       style="fill:#22411f;fill-opacity:1;fill-rule:nonzero;stroke:none"
       id="path4178"
       inkscape:connector-curvature="0" />
    <path
       d="m 431.055,526.933 c -43.886,0 -79.588,-35.704 -79.588,-79.59 0,-43.886 35.702,-79.59 79.588,-79.59 43.886,0 79.591,35.704 79.591,79.59 0,43.886 -35.705,79.59 -79.591,79.59 z m 0,-165.49 c -11.593,0 -22.843,2.272 -33.436,6.751 -10.229,4.327 -19.413,10.521 -27.301,18.409 -7.888,7.888 -14.08,17.077 -18.407,27.308 -4.483,10.588 -6.754,21.836 -6.754,33.432 0,11.6 2.271,22.847 6.754,33.44 4.327,10.223 10.519,19.412 18.407,27.299 7.888,7.888 17.072,14.082 27.301,18.409 10.593,4.479 21.843,6.752 33.436,6.752 11.595,0 22.847,-2.273 33.44,-6.752 10.233,-4.327 19.412,-10.521 27.304,-18.409 7.889,-7.887 14.078,-17.076 18.405,-27.299 4.479,-10.593 6.751,-21.84 6.751,-33.44 0,-11.596 -2.272,-22.844 -6.751,-33.432 -4.327,-10.231 -10.516,-19.42 -18.405,-27.308 -7.892,-7.888 -17.071,-14.082 -27.304,-18.409 -10.593,-4.479 -21.845,-6.751 -33.44,-6.751"
       style="fill:#67c531;fill-opacity:1;fill-rule:nonzero;stroke:none"
       id="path4180"
       inkscape:connector-curvature="0" />
  </g>
  <flowRoot
     xml:space="preserve"
     id="flowRoot3133"
     style="font-size:40px;font-style:normal;font-variant:normal;font-weight:bold;font-stretch:normal;text-align:start;line-height:125%;letter-spacing:0px;word-spacing:0px;writing-mode:lr-tb;text-anchor:start;opacity:0.67960014;fill:#b29823;fill-opacity:1;stroke:none;font-family:Sans;-inkscape-font-specification:Sans Bold"
     transform="translate(2.8482998,-20.000005)"><flowRegion
       id="flowRegion3135"><rect
         id="rect3137"
         width="124"
         height="72"
         x="8"
         y="56"
         style="font-size:40px;font-style:normal;font-variant:normal;font-weight:bold;font-stretch:normal;text-align:start;line-height:125%;writing-mode:lr-tb;text-anchor:start;fill:#b29823;fill-opacity:1;font-family:Sans;-inkscape-font-specification:Sans Bold" /></flowRegion><flowPara
       id="flowPara3139">UNIX</flowPara></flowRoot>  <flowRoot
     style="font-size:40px;font-style:normal;font-variant:normal;font-weight:bold;font-stretch:normal;text-align:start;line-height:125%;letter-spacing:0px;word-spacing:0px;writing-mode:lr-tb;text-anchor:start;opacity:0.4;fill:#ffff00;fill-opacity:1;stroke:none;font-family:Sans;-inkscape-font-specification:Sans Bold"
     id="flowRoot3141"
     xml:space="preserve"
     transform="translate(2.2625136,-20.353557)"><flowRegion
       id="flowRegion3143"><rect
         style="font-size:40px;font-style:normal;font-variant:normal;font-weight:bold;font-stretch:normal;text-align:start;line-height:125%;writing-mode:lr-tb;text-anchor:start;fill:#ffff00;fill-opacity:1;font-family:Sans;-inkscape-font-specification:Sans Bold"
         y="56"
         x="8"
         height="72"
         width="124"
         id="rect3145" /></flowRegion><flowPara
       id="flowPara3147">UNIX</flowPara></flowRoot></svg>
